# AST/ASF file generated using VICON BodyLanguage
# -----------------------------------------------
:version 1.10
:name VICON
:units
  mass 1.0
  length 0.45
  angle deg
:documentation
   .ast/.asf automatically generated from VICON data using
   VICON BodyBuilder and BodyLanguage model FoxedUp or BRILLIANT.MOD
:root
   order TX TY TZ RX RY RZ
   axis XYZ
   position 0 0 0  
   orientation 0 0 0 
:bonedata
  begin
     id 1 
     name lhipjoint
     direction 0.630082 -0.636569 0.44472 
     length 2.82754 
     axis 0 0 0  XYZ
  end
  begin
     id 2 
     name lfemur
     direction 0.34202 -0.939693 0  
     length 7.26371  
     axis 0 0 20  XYZ
    dof rx ry rz
    limits (-160.0 20.0)
           (-70.0 70.0)
           (-60.0 70.0)
  end
  begin
     id 3 
     name ltibia
     direction 0.34202 -0.939693 0   
     length 7.88616   
     axis 0 0 20   XYZ
    dof rx
    limits (-10.0 170.0)
  end
  begin
     id 4 
     name lfoot
     direction 0.0603448 -0.165796 0.984312   
     length 1.77861   
     axis -90 7.62852e-016 20   XYZ
    dof rx rz
    limits (-45.0 90.0)
           (-70.0 20.0)
  end
  begin
     id 5 
     name ltoes
     direction 1.53577e-011 -4.21876e-011 1   
     length 0.902235   
     axis -90 7.62852e-016 20   XYZ
    dof rx
    limits (-90.0 20.0)
  end
  begin
     id 6 
     name rhipjoint
     direction -0.656778 -0.61817 0.431866   
     length 2.9117  
     axis 0 0 0  XYZ 
  end
  begin
     id 7 
     name rfemur
     direction -0.34202 -0.939693 0   
     length 6.81603   
     axis 0 0 -20   XYZ
    dof rx ry rz
    limits (-160.0 20.0)
           (-70.0 70.0)
           (-70.0 60.0)
  end
  begin
     id 8 
     name rtibia
     direction -0.34202 -0.939693 0   
     length 8.05997   
     axis 0 0 -20   XYZ
    dof rx
    limits (-10.0 170.0)
 end
 begin
     id 9 
     name rfoot
     direction -0.0862404 -0.236944 0.967688   
     length 1.84899  
     axis -90 -7.62852e-016 -20   XYZ
    dof rx rz
    limits (-45.0 90.0)
           (-20.0 70.0)
  end
  begin
     id 10 
     name rtoes
     direction -1.53561e-011 -4.21798e-011 1   
     length 0.931579   
     axis -90 -7.62852e-016 -20   XYZ
    dof rx
    limits (-90.0 20.0)
  end
  begin
     id 11 
     name lowerback
     direction -0.0110203 0.991769 -0.127564   
     length 2.05686   
     axis 0 0 0   XYZ
    dof rx ry rz
    limits (-20.0 45.0)
           (-30.0 30.0)
           (-30.0 30.0)
  end
  begin
     id 12 
     name upperback
     direction 0.0109719 0.99993 -0.00432479   
     length 2.06234   
     axis 0 0 0   XYZ
    dof rx ry rz
    limits (-20.0 45.0)
           (-30.0 30.0)
           (-30.0 30.0)
  end
  begin
     id 13 
     name thorax
     direction 0.0173308 0.998351 0.0547306   
     length 2.09856   
     axis 0 0 0   XYZ
    dof rx ry rz
    limits (-20.0 45.0)
           (-30.0 30.0)
           (-30.0 30.0)
  end
  begin
     id 14 
     name lowerneck
     direction -0.0311736 0.989033 0.144366   
     length 1.98151   
     axis 0 0 0   XYZ
    dof rx ry rz
    limits (-20.0 45.0)
           (-30.0 30.0)
           (-30.0 30.0)
  end
  begin
     id 15 
     name upperneck
     direction 0.0421057 0.975772 -0.214698   
     length 2.01457   
     axis 0 0 0   XYZ
    dof rx ry rz
    limits (-20.0 45.0)
           (-30.0 30.0)
           (-30.0 30.0)
  end
  begin
     id 16
     name head
     direction 0.0136911 0.995958 -0.0887718  
     length 2.03562  
     axis 0 0 0   XYZ
    dof rx ry rz
    limits (-20.0 45.0)
           (-30.0 30.0)
           (-30.0 30.0)
  end
  begin
     id 17 
     name lclavicle
     direction 0.915335 0.396201 0.0720134  
     length 4.16217  
     axis 0 0 0   XYZ
    dof ry rz
    limits (-20.0 10.0)
           (0.0 20.0)
  end
  begin
     id 18 
     name lhumerus
     direction 1 -4.48965e-011 6.383e-018   
     length 4.93042   
     axis -180 -30 -90   XYZ
    dof rx ry rz
    limits (-60.0 90.0)
           (-90.0 90.0)
           (-90.0 90.0)
  end
  begin
     id 19
     name lradius
     direction 1 -4.48972e-011 8.8689e-027   
     length 3.68177   
     axis -180 -30 -90   XYZ
    dof rx
    limits (-10.0 170.0)
  end
  begin
     id 20
     name lwrist
     direction 1 -4.48953e-011 1.17971e-026   
     length 1.84089   
     axis -7.69454e-015 90 90   XYZ
    dof ry
    limits (-180.0 0.0)
 end
  begin
     id 21 
     name lhand
     direction 1 -4.49027e-011 2.35802e-026   
     length 0.721479   
     axis -1.50533e-014 90 90   XYZ
    dof rx rz
    limits (-90.0 90.0)
           (-45.0 45.0)
  end
  begin
     id 22 
     name lfingers
     direction 1 -4.48915e-011 4.72027e-026   
     length 0.581675   
     axis -3.01059e-014 90 90   XYZ
    dof rx
    limits (0.0 90.0)
  end
  begin
     id 23
     name lthumb
     direction 0.707107 -6.34948e-011 0.707107   
     length 0.835172   
     axis -90 45 -5.12164e-014   XYZ
    dof rx rz
    limits (-45.0 45.0)
           (-45.0 45.0)
  end
  begin
     id 24 
     name rclavicle
     direction -0.882781 0.469197 0.0234974   
     length 3.95647  
     axis 0 0 0   XYZ 
    dof ry rz
    limits (-10.0 20.0)
           (-20.0 0.0)
  end
  begin
     id 25 
     name rhumerus
     direction -1 -4.48965e-011 -1.54906e-018  
     length 5.07905   
     axis -180 30 90   XYZ
    dof rx ry rz
    limits (-90.0 60.0)
           (-90.0 90.0)
           (-90.0 90.0)
  end
  begin
     id 26 
     name rradius
     direction -1 -4.48972e-011 5.47489e-027   
     length 3.54394   
     axis -180 30 90   XYZ
    dof rx
    limits (-10.0 170.0)
  end
  begin
     id 27 
     name rwrist
     direction -1 -4.48955e-011 1.17969e-026   
     length 1.77197   
     axis -7.69454e-015 -90 -90   XYZ
    dof ry
    limits (-180.0 0.0)
  end
  begin
     id 28
     name rhand
     direction -1 -4.48982e-011 2.35888e-026   
     length 0.681156   
     axis -1.50533e-014 -90 -90   XYZ
    dof rx rz
    limits (-90.0 90.0)
           (-45.0 45.0)
  end
  begin
     id 29
     name rfingers
     direction -1 -4.48955e-011 4.71877e-026   
     length 0.549165   
     axis -3.01059e-014 -90 -90   XYZ
    dof rx
    limits (0.0 90.0)
  end
  begin
     id 30
     name rthumb
     direction -0.707107 -6.3491e-011 0.707107   
     length 0.788495   
     axis -90 -45 5.12164e-014   XYZ
    dof rx rz
    limits (-45.0 45.0)
           (-45.0 45.0)
  end
:hierarchy
  begin
    root lhipjoint rhipjoint lowerback
    lhipjoint lfemur
    lfemur ltibia
    ltibia lfoot
    lfoot ltoes
    rhipjoint rfemur
    rfemur rtibia
    rtibia rfoot
    rfoot rtoes
    lowerback upperback
    upperback thorax
    thorax lowerneck lclavicle rclavicle
    lowerneck upperneck
    upperneck head
    lclavicle lhumerus
    lhumerus lradius
    lradius lwrist
    lwrist lhand lthumb
    lhand lfingers
    rclavicle rhumerus
    rhumerus rradius
    rradius rwrist
    rwrist rhand rthumb
    rhand rfingers
  end

#!OML:ASF H:\Bending\Project 1\Capture day 1\Session 1\Subject.ASF
:FULLY-SPECIFIED
:DEGREES
309
root -10.3974 18.0256 -16.0265 204.2 86.2366 197.674
lowerback 6.59409 0.382409 -0.700933
upperback -2.06553 0.576269 2.00415
thorax -5.88347 0.35627 2.41681
lowerneck -22.3444 -3.76184 -4.88308
upperneck 32.1435 -3.89866 2.46764
head 15.1338 -1.67689 1.17494
rclavicle 1.59028e-015 -2.0276e-014
rhumerus -49.6353 -2.91007 -73.5393
rradius 34.8475
rwrist 15.9994
rhand -20.3735 -20.3495
rfingers 7.12502
rthumb 5.97922 -50.2451
lclavicle 1.59028e-015 -2.0276e-014
lhumerus -42.5015 3.12888 92.8912
lradius 44.1059
lwrist 23.2477
lhand -37.9234 12.4529
lfingers 7.12502
lthumb -10.9653 42.1465
rfemur 3.60872 -8.40602 15.6659
rtibia -2.8625e-014
rfoot -9.56115 -7.80998
rtoes -4.61033
lfemur -12.1264 -26.5094 -10.8156
ltibia 21.7513
lfoot -28.348 24.2355
ltoes -22.3969
310
root -10.4223 18.0237 -16.0271 204.152 86.1578 197.703
lowerback 6.58029 0.359221 -0.587862
upperback -2.0942 0.559101 2.04527
thorax -5.90423 0.345297 2.39814
lowerneck -22.3098 -3.76867 -4.9278
upperneck 32.1976 -3.88742 2.46335
head 15.152 -1.67694 1.1843
rclavicle -5.96354e-015 -7.95139e-016
rhumerus -49.583 -3.08587 -73.6022
rradius 35.7557
rwrist 16.2762
rhand -20.2414 -20.7335
rfingers 7.12502
rthumb 6.10674 -50.6255
lclavicle -5.96354e-015 -7.95139e-016
lhumerus -42.2168 2.23736 93.5692
lradius 45.1606
lwrist 23.5001
lhand -37.5445 12.3819
lfingers 7.12502
lthumb -10.5999 42.0946
rfemur 3.64044 -8.47116 15.6848
rtibia 1.59028e-015
rfoot -9.60012 -7.75014
rtoes -4.49571
lfemur -12.1921 -26.8902 -10.769
ltibia 21.8345
lfoot -28.5793 24.4116
ltoes -22.069
311
root -10.4474 18.0217 -16.0286 204.119 86.0828 197.76
lowerback 6.58802 0.326029 -0.476424
upperback -2.11617 0.527927 2.07959
thorax -5.92958 0.327217 2.37491
lowerneck -22.285 -3.7533 -4.91867
upperneck 32.2329 -3.85738 2.43609
head 15.1604 -1.6662 1.17808
rclavicle 1.16289e-014 -4.77083e-015
rhumerus -49.4683 -3.56307 -73.5091
rradius 36.5432
rwrist 16.9174
rhand -20.0843 -20.9798
rfingers 7.12502
rthumb 6.2584 -50.8673
lclavicle 1.16289e-014 -4.77083e-015
lhumerus -41.9744 1.39012 94.1485
lradius 46.1441
lwrist 23.7651
lhand -36.9628 12.2573
lfingers 7.12502
lthumb -10.0388 41.9978
rfemur 3.6793 -8.5312 15.7019
rtibia -2.70347e-014
rfoot -9.6247 -7.70991
rtoes -4.57328
lfemur -12.242 -27.217 -10.7304
ltibia 21.9135
lfoot -28.7961 24.5363
ltoes -21.6226
312
root -10.4724 18.0199 -16.0304 204.04 86.0293 197.777
lowerback 6.61046 0.291005 -0.389287
upperback -2.13163 0.491605 2.1073
thorax -5.95653 0.30721 2.35909
lowerneck -22.2747 -3.71854 -4.85716
upperneck 32.2591 -3.81123 2.385
head 15.1648 -1.64588 1.15572
rclavicle -1.49089e-016 -3.97569e-016
rhumerus -49.3412 -4.05751 -73.4328
rradius 37.2887
rwrist 17.5357
rhand -19.9517 -21.0138
rfingers 7.12502
rthumb 6.38644 -50.8975
lclavicle -1.49089e-016 -3.97569e-016
lhumerus -41.7601 0.649409 94.6183
lradius 47.0267
lwrist 23.9999
lhand -36.2216 12.0641
lfingers 7.12502
lthumb -9.32364 41.8379
rfemur 3.72117 -8.57226 15.7069
rtibia -4.77083e-015
rfoot -9.64534 -7.68025
rtoes -4.5707
lfemur -12.2696 -27.4491 -10.7116
ltibia 21.9743
lfoot -28.9657 24.6137
ltoes -21.1811
313
root -10.4967 18.0186 -16.0318 203.854 86.0102 197.691
lowerback 6.63971 0.263165 -0.343218
upperback -2.14123 0.460769 2.13091
thorax -5.98184 0.291202 2.36151
lowerneck -22.2809 -3.67563 -4.76547
upperneck 32.2865 -3.75966 2.3197
head 15.1719 -1.62162 1.12306
rclavicle 6.5102e-015 -4.37326e-015
rhumerus -49.2402 -4.30944 -73.5168
rradius 38.043
rwrist 17.8286
rhand -19.8726 -20.808
rfingers 7.12502
rthumb 6.46276 -50.6894
lclavicle 6.5102e-015 -4.37326e-015
lhumerus -41.5645 0.0341522 94.995
lradius 47.7836
lwrist 24.1759
lhand -35.4238 11.8164
lfingers 7.12502
lthumb -8.55377 41.6231
rfemur 3.76613 -8.58453 15.6893
rtibia -1.59028e-014
rfoot -9.6742 -7.6434
rtoes -4.21369
lfemur -12.2686 -27.5653 -10.7228
ltibia 22.0071
lfoot -29.0626 24.6529
ltoes -20.8593
314
root -10.5199 18.018 -16.0325 203.538 86.0277 197.478
lowerback 6.66881 0.248082 -0.340945
upperback -2.14643 0.442876 2.15485
thorax -6.00342 0.283116 2.38748
lowerneck -22.3 -3.63916 -4.6782
upperneck 32.3215 -3.71606 2.2563
head 15.1863 -1.60087 1.0903
rclavicle -1.25731e-014 -1.47101e-014
rhumerus -49.203 -4.53336 -73.6122
rradius 38.8734
rwrist 18.0593
rhand -19.725 -20.3383
rfingers 7.12502
rthumb 6.60527 -50.2152
lclavicle -1.25731e-014 -1.47101e-014
lhumerus -41.3831 -0.467083 95.3063
lradius 48.3943
lwrist 24.275
lhand -34.688 11.5467
lfingers 7.12502
lthumb -7.84363 41.3812
rfemur 3.81663 -8.56655 15.6458
rtibia 1.59028e-015
rfoot -9.71784 -7.58321
rtoes -3.37263
lfemur -12.2374 -27.5713 -10.7662
ltibia 22.0106
lfoot -29.0797 24.6629
ltoes -20.7072
315
root -10.5414 18.0177 -16.0327 203.133 86.0732 197.177
lowerback 6.69267 0.245793 -0.369452
upperback -2.1499 0.439484 2.1834
thorax -6.02116 0.283406 2.43393
lowerneck -22.3241 -3.62075 -4.62773
upperneck 32.3654 -3.69015 2.20973
head 15.2083 -1.58957 1.06745
rclavicle 1.635e-014 -9.54166e-015
rhumerus -49.1482 -4.11226 -74.0705
rradius 39.506
rwrist 17.6092
rhand -19.7389 -19.8019
rfingers 7.12502
rthumb 6.59186 -49.6793
lclavicle 1.635e-014 -9.54166e-015
lhumerus -41.2143 -0.875864 95.5748
lradius 48.8413
lwrist 24.2904
lhand -34.1054 11.2946
lfingers 7.12502
lthumb -7.28131 41.1494
rfemur 3.87354 -8.52508 15.5831
rtibia 1.90833e-014
rfoot -9.77263 -7.49551
rtoes -2.14163
lfemur -12.1821 -27.5036 -10.8329
ltibia 21.9932
lfoot -29.0357 24.6543
ltoes -20.6919
